<svg viewBox="0 0 200 200" xmlns="http://www.w3.org/2000/svg">
  <path fill="#9F19D7" d="M28,-42.6C41.4,-40.8,61,-43.6,65.1,-37.3C69.2,-31,57.8,-15.5,55.1,-1.5C52.5,12.4,58.6,24.9,58.3,37.8C58,50.6,51.3,63.9,40.5,64.1C29.7,64.3,14.8,51.5,3.2,45.9C-8.4,40.3,-16.7,41.9,-28.2,42C-39.6,42.2,-54.1,40.9,-66.6,33.7C-79,26.4,-89.4,13.2,-85.1,2.5C-80.7,-8.1,-61.5,-16.3,-51.9,-28.5C-42.3,-40.6,-42.2,-56.8,-35.2,-62.4C-28.1,-67.9,-14.1,-62.8,-3.4,-56.9C7.3,-51,14.6,-44.5,28,-42.6Z" transform="translate(100 100)" />
</svg>